<svg width="800" height="800" viewBox="0 0 24 24" xmlns="http://www.w3.org/2000/svg"><path d="M6 13V8.82A3 3 0 0 0 7 9a3 3 0 0 0 3-3 2.94 2.94 0 0 0-1-2.2 5.9 5.9 0 0 1 3-.8 6 6 0 0 1 6 6v4l1.38 1.38a2.12 2.12 0 0 1-1.5 3.62H6.12a2.12 2.12 0 0 1-1.5-3.62Z" style="fill:#ffffff;stroke-width:2"/><path d="M9.12 3.73A6 6 0 0 1 12 3a6 6 0 0 1 6 6v4l1.38 1.38a2.12 2.12 0 0 1-1.5 3.62H6.12a2.12 2.12 0 0 1-1.5-3.62L6 13V9" style="fill:none;stroke:#000;stroke-linecap:round;stroke-linejoin:round;stroke-width:2"/><path data-name="primary" d="M12 21a3 3 0 0 1-3-3h6a3 3 0 0 1-3 3M10 6a3 3 0 0 0-3-3h0a3 3 0 0 0-3 3h0a3 3 0 0 0 3 3h0a3 3 0 0 0 3-3" style="fill:none;stroke:#000;stroke-linecap:round;stroke-linejoin:round;stroke-width:2"/></svg>
